<!DOCTYPE svg PUBLIC "-//W3C//DTD SVG 1.1//EN" "http://www.w3.org/Graphics/SVG/1.1/DTD/svg11.dtd">
<!-- Uploaded to: SVG Repo, www.svgrepo.com, Transformed by: SVG Repo Mixer Tools -->
<svg width="87px" height="87px" viewBox="-286.72 -286.72 1597.44 1597.44" class="icon" version="1.1" xmlns="http://www.w3.org/2000/svg" fill="#000000" stroke="#000000" stroke-width="0.01024" transform="rotate(0)">
<g id="SVGRepo_bgCarrier" stroke-width="0" transform="translate(0,0), scale(1)">
<path transform="translate(-286.72, -286.72), scale(49.92)" d="M16,28.99286375939846C18.467932920988943,29.177968313794345,21.387212738908815,31.45576061181229,23.266837158808432,29.84580140777135C25.354649446135355,28.05752255125849,23.242633536196806,24.291557657873184,24.399929072096775,21.79805240254481C25.28532978137235,19.890370869898724,28.2239549414552,19.543127511678225,28.9625052870341,17.57393309948072C29.70862449483672,15.584557854267755,28.86427520691472,13.380502079250604,28.32801889417331,11.324599137581632C27.747507974236107,9.099032594842619,27.81808384856992,5.943743878600041,25.696945999492186,5.054410651100071C23.274405304067436,4.038707717719824,20.793183795054468,7.491560184306674,18.199115910982023,7.077836021741588C15.937078088566734,6.717066857019459,15.077704371949343,3.186709365084355,12.794972793559488,2.996693467661622C10.653510223316212,2.8184368842182943,8.812102989120168,4.651748784359982,7.291255358858788,6.169859397860252C5.812546780751699,7.645906795397673,4.298632079884374,9.450559998780605,4.237277494539667,11.538987779098052C4.1757625000216425,13.632875672492453,6.632495213606358,15.029027242407462,6.970251210124234,17.096410006065515C7.287432025296093,19.037853406063324,5.702721628956975,20.914506870674593,6.084273516161259,22.844331811512227C6.527636989396288,25.08678930471094,7.340917766253486,27.592380856457673,9.283613489739048,28.79700532248557C11.215177351345655,29.994727156768455,13.733597501091381,28.82287476939216,16,28.99286375939846" fill="#ff8000" strokewidth="0"/>
</g>
<g id="SVGRepo_tracerCarrier" stroke-linecap="round" stroke-linejoin="round" stroke="#CCCCCC" stroke-width="2.048"/>
<g id="SVGRepo_iconCarrier">
<path d="M997.275065 366.318614c0-28.307978-17.236949-61.240397-38.466837-73.497686L471.943893 11.727748c-21.23208-12.257289-38.466837 0.774029-38.466837 29.079814v410.314388c0 28.307978 17.234757 61.24259 38.466837 73.499878l486.864335 281.090988c21.229887 12.257289 38.466837-0.774029 38.466837-29.079815V366.318614z" fill="#c0c0c0"/>
<path d="M459.011247 4.261546c-8.919973-5.150693-22.435882-5.709835-30.163017-1.249849l-13.998306 8.082355c-4.359122 2.517239-3.810942 6.918023 1.221343 9.823373l551.029817 318.139137c19.811199-11.439405 17.322465-31.447949-5.554152-44.654684L459.011247 4.261546z" fill="#c0c0c0"/>
<path d="M992.889631 356.394376c0-24.470723-14.899513-35.734711-33.252556-25.137309-1.668658 0.962603-3.021564 3.550009-3.021564 5.775617v474.065445c0 6.674631 4.063105 9.746628 9.066885 6.856627l17.412367-10.053608c5.40724-3.120236 9.794867-11.505187 9.794868-18.712648V356.394376z" fill="#c0c0c0"/>
<path d="M978.75099 360.23821c0-18.975774-11.555619-41.049858-25.786353-49.265969L437.980897 13.644182c-20.330873-11.737615-36.835455 0.741138-36.835455 27.847508v392.904213c0 27.106369 16.504582 58.642027 36.835455 70.379642l503.934638 290.947252c20.328681 11.737615 36.835455-0.741138 36.835455-27.847508V360.23821z" fill="#383838"/>
<path d="M963.193662 350.351248c0-7.479358-4.554273-16.18006-10.165436-19.418703L425.480217 26.350978c-5.60897-3.238643-10.163244 0.203923-10.163244 7.683281v424.606518c0 7.479358 4.554273 16.182252 10.163244 19.420895l527.548009 304.579374c5.611163 3.238643 10.165437-0.203923 10.165436-7.68328V350.351248z" fill="#383838"/>
<path d="M410.411864 467.753709c-12.954573-7.477165-32.581584-8.290664-43.799524-1.81557L53.575656 646.670657c-40.387657 23.317354-35.31371 64.108471 11.320998 91.035037L538.137638 1010.929213c25.909146 14.958716 65.158782 16.585712 87.596857 3.63114l345.559064-199.508755c11.220134-6.477286 9.810216-17.807056-3.144356-25.286414L410.411864 467.753709z" fill="#c0c0c0"/>
<path d="M431.126463 455.310039c-12.722145-7.345602-31.996128-8.145944-43.014532-1.784871L64.712466 640.24161c-30.849337 17.811441-26.974806 48.969952 8.648076 69.535446l474.168503 273.760735c25.44429 14.691205 63.992257 16.289696 86.026872 3.56755l339.371217-195.936818c11.018404-6.361072 9.634799-17.489112-3.087346-24.834714L431.126463 455.310039zM748.745926 212.988483l-108.824551-62.830117v8.672196c0 7.178956 4.370085 15.531015 9.755398 18.640289l89.313755 51.566129c5.385313 3.10708 9.755399-0.197345 9.755398-7.376301v-8.672196z" fill="#383838"/>
<path d="M358.071706 860.675464l-108.826744-62.83231v17.019871c0 14.0904 8.580102 30.480961 19.146806 36.583293l70.533132 40.720949c10.566704 6.102332 19.146806-0.383725 19.146806-14.474125v-17.017678zM412.483982 510.838408l-36.274119 20.944834 36.274119 20.942642 36.276313-20.942642-36.276313-20.944834z" fill="#383838"/>
<path d="M412.483982 513.370996l-31.888685 18.412246 31.888685 18.410053 31.890878-18.410053-31.890878-18.412246z" fill="#c0c0c0"/>
<path d="M376.209863 531.783242l-36.276313 20.942642 36.276313 20.944834 36.274119-20.944834-36.274119-20.942642z" fill="#383838"/>
<path d="M376.209863 534.313638l-31.890879 18.412246 31.890879 18.412245 31.888685-18.412245-31.888685-18.412246z" fill="#c0c0c0"/>
<path d="M376.209863 573.670718l-36.276313 20.942641 36.276313 20.942641 36.274119-20.942641-36.274119-20.942641z" fill="#383838"/>
<path d="M376.209863 576.201113l-31.890879 18.412246 31.890879 18.412246 31.888685-18.412246-31.888685-18.412246z" fill="#c0c0c0"/>
<path d="M376.209863 615.556l-36.276313 20.944835 36.276313 20.942641 36.274119-20.942641-36.274119-20.944835z" fill="#383838"/>
<path d="M376.209863 618.088589l-31.890879 18.412246 31.890879 18.412245 31.888685-18.412245-31.888685-18.412246z" fill="#c0c0c0"/>
<path d="M376.209863 657.443476l-36.276313 20.944834 36.276313 20.942641 36.274119-20.942641-36.274119-20.944834z" fill="#383838"/>
<path d="M376.209863 659.976064l-31.890879 18.412246 31.890879 18.410053 31.888685-18.410053-31.888685-18.412246z" fill="#c0c0c0"/>
<path d="M448.760295 531.783242l-36.276313 20.942642 36.276313 20.944834 36.274119-20.944834-36.274119-20.942642z" fill="#383838"/>
<path d="M448.760295 534.313638l-31.890879 18.412246 31.890879 18.412245 31.888685-18.412245-31.888685-18.412246z" fill="#c0c0c0"/>
<path d="M412.483982 552.725884l-36.274119 20.944834 36.274119 20.942641 36.276313-20.942641-36.276313-20.944834z" fill="#383838"/>
<path d="M412.483982 555.258472l-31.888685 18.412246 31.888685 18.410053 31.890878-18.410053-31.890878-18.412246z" fill="#c0c0c0"/>
<path d="M412.483982 594.613359l-36.274119 20.942641 36.274119 20.944835 36.276313-20.944835-36.276313-20.942641z" fill="#383838"/>
<path d="M412.483982 597.145947l-31.888685 18.410053 31.888685 18.412246 31.890878-18.412246-31.890878-18.410053z" fill="#c0c0c0"/>
<path d="M412.483982 636.500835l-36.274119 20.942641 36.274119 20.944834 36.276313-20.944834-36.276313-20.942641z" fill="#383838"/>
<path d="M412.483982 639.03123l-31.888685 18.412246 31.888685 18.412246 31.890878-18.412246-31.890878-18.412246z" fill="#c0c0c0"/>
<path d="M412.483982 678.38831l-36.274119 20.942641 36.274119 20.942642 36.276313-20.942642-36.276313-20.942641z" fill="#383838"/>
<path d="M412.483982 680.918706l-31.888685 18.412245 31.888685 18.412246 31.890878-18.412246-31.890878-18.412245z" fill="#c0c0c0"/>
<path d="M485.034414 552.725884l-36.274119 20.944834 36.274119 20.942641 36.276312-20.942641-36.276312-20.944834z" fill="#383838"/>
<path d="M485.034414 555.258472l-31.888685 18.412246 31.888685 18.410053 31.890878-18.410053-31.890878-18.412246z" fill="#c0c0c0"/>
<path d="M448.760295 573.670718l-36.276313 20.942641 36.276313 20.942641 36.274119-20.942641-36.274119-20.942641z" fill="#383838"/>
<path d="M448.760295 576.201113l-31.890879 18.412246 31.890879 18.412246 31.888685-18.412246-31.888685-18.412246z" fill="#c0c0c0"/>
<path d="M448.760295 615.556l-36.276313 20.944835 36.276313 20.942641 36.274119-20.942641-36.274119-20.944835z" fill="#383838"/>
<path d="M448.760295 618.088589l-31.890879 18.412246 31.890879 18.412245 31.888685-18.412245-31.888685-18.412246z" fill="#c0c0c0"/>
<path d="M448.760295 657.443476l-36.276313 20.944834 36.276313 20.942641 36.274119-20.942641-36.274119-20.944834z" fill="#383838"/>
<path d="M448.760295 659.976064l-31.890879 18.412246 31.890879 18.410053 31.888685-18.410053-31.888685-18.412246z" fill="#c0c0c0"/>
<path d="M448.760295 699.330951l-36.276313 20.942642 36.276313 20.944834 36.274119-20.944834-36.274119-20.942642z" fill="#383838"/>
<path d="M448.760295 701.86354l-31.890879 18.410053 31.890879 18.412246 31.888685-18.412246-31.888685-18.410053z" fill="#c0c0c0"/>
<path d="M521.310726 573.670718l-36.276312 20.942641 36.276312 20.942641 36.27412-20.942641-36.27412-20.942641z" fill="#383838"/>
<path d="M521.310726 576.201113l-31.890878 18.412246 31.890878 18.412246 31.888686-18.412246-31.888686-18.412246z" fill="#c0c0c0"/>
<path d="M485.034414 594.613359l-36.274119 20.942641 36.274119 20.944835 36.276312-20.944835-36.276312-20.942641z" fill="#383838"/>
<path d="M485.034414 597.145947l-31.888685 18.410053 31.888685 18.412246 31.890878-18.412246-31.890878-18.410053z" fill="#c0c0c0"/>
<path d="M485.034414 636.500835l-36.274119 20.942641 36.274119 20.944834 36.276312-20.944834-36.276312-20.942641z" fill="#383838"/>
<path d="M485.034414 639.03123l-31.888685 18.412246 31.888685 18.412246 31.890878-18.412246-31.890878-18.412246z" fill="#c0c0c0"/>
<path d="M485.034414 678.38831l-36.274119 20.942641 36.274119 20.942642 36.276312-20.942642-36.276312-20.942641z" fill="#383838"/>
<path d="M485.034414 680.918706l-31.888685 18.412245 31.888685 18.412246 31.890878-18.412246-31.890878-18.412245z" fill="#c0c0c0"/>
<path d="M485.034414 720.273593l-36.274119 20.944834 36.274119 20.942641 36.276312-20.942641-36.276312-20.944834z" fill="#383838"/>
<path d="M485.034414 722.806181l-31.888685 18.412246 31.888685 18.412246 31.890878-18.412246-31.890878-18.412246z" fill="#c0c0c0"/>
<path d="M557.584846 594.613359l-36.27412 20.942641 36.27412 20.944835 36.276312-20.944835-36.276312-20.942641z" fill="#383838"/>
<path d="M557.584846 597.145947l-31.888685 18.410053 31.888685 18.412246 31.890878-18.412246-31.890878-18.410053z" fill="#c0c0c0"/>
<path d="M521.310726 615.556l-36.276312 20.944835 36.276312 20.942641 36.27412-20.942641-36.27412-20.944835z" fill="#383838"/>
<path d="M521.310726 618.088589l-31.890878 18.412246 31.890878 18.412245 31.888686-18.412245-31.888686-18.412246z" fill="#c0c0c0"/>
<path d="M521.310726 657.443476l-36.276312 20.944834 36.276312 20.942641 36.27412-20.942641-36.27412-20.944834z" fill="#383838"/>
<path d="M521.310726 659.976064l-31.890878 18.412246 31.890878 18.410053 31.888686-18.410053-31.888686-18.412246z" fill="#c0c0c0"/>
<path d="M521.310726 699.330951l-36.276312 20.942642 36.276312 20.944834 36.27412-20.944834-36.27412-20.942642z" fill="#383838"/>
<path d="M521.310726 701.86354l-31.890878 18.410053 31.890878 18.412246 31.888686-18.412246-31.888686-18.410053z" fill="#c0c0c0"/>
<path d="M521.310726 741.218427l-36.276312 20.942641 36.276312 20.944834 36.27412-20.944834-36.27412-20.942641z" fill="#383838"/>
<path d="M521.310726 743.751015l-31.890878 18.410053 31.890878 18.412246 31.888686-18.412246-31.888686-18.410053z" fill="#c0c0c0"/>
<path d="M593.861158 615.556l-36.276312 20.944835 36.276312 20.942641 36.276313-20.942641-36.276313-20.944835z" fill="#383838"/>
<path d="M593.861158 618.088589l-31.890878 18.412246 31.890878 18.412245 31.890878-18.412245-31.890878-18.412246z" fill="#c0c0c0"/>
<path d="M557.584846 636.500835l-36.27412 20.942641 36.27412 20.944834 36.276312-20.944834-36.276312-20.942641z" fill="#383838"/>
<path d="M557.584846 639.03123l-31.888685 18.412246 31.888685 18.412246 31.890878-18.412246-31.890878-18.412246z" fill="#c0c0c0"/>
<path d="M557.584846 678.38831l-36.27412 20.942641 36.27412 20.942642 36.276312-20.942642-36.276312-20.942641z" fill="#383838"/>
<path d="M557.584846 680.918706l-31.888685 18.412245 31.888685 18.412246 31.890878-18.412246-31.890878-18.412245z" fill="#c0c0c0"/>
<path d="M557.584846 720.273593l-36.27412 20.944834 36.27412 20.942641 36.276312-20.942641-36.276312-20.944834z" fill="#383838"/>
<path d="M557.584846 722.806181l-31.888685 18.412246 31.888685 18.412246 31.890878-18.412246-31.890878-18.412246z" fill="#c0c0c0"/>
<path d="M557.584846 762.161068l-36.27412 20.944834 36.27412 20.942642 36.276312-20.942642-36.276312-20.944834z" fill="#383838"/>
<path d="M557.584846 764.693657l-31.888685 18.412245 31.888685 18.412246 31.890878-18.412246-31.890878-18.412245z" fill="#c0c0c0"/>
<path d="M630.137471 636.500835l-36.276313 20.942641 36.276313 20.944834 36.274119-20.944834-36.274119-20.942641z" fill="#383838"/>
<path d="M630.137471 639.03123l-31.890878 18.412246 31.890878 18.412246 31.888685-18.412246-31.888685-18.412246z" fill="#c0c0c0"/>
<path d="M593.861158 657.443476l-36.276312 20.944834 36.276312 20.942641 36.276313-20.942641-36.276313-20.944834z" fill="#383838"/>
<path d="M593.861158 659.976064l-31.890878 18.412246 31.890878 18.410053 31.890878-18.410053-31.890878-18.412246z" fill="#c0c0c0"/>
<path d="M593.861158 699.330951l-36.276312 20.942642 36.276312 20.944834 36.276313-20.944834-36.276313-20.942642z" fill="#383838"/>
<path d="M593.861158 701.86354l-31.890878 18.410053 31.890878 18.412246 31.890878-18.412246-31.890878-18.410053z" fill="#c0c0c0"/>
<path d="M593.861158 741.218427l-36.276312 20.942641 36.276312 20.944834 36.276313-20.944834-36.276313-20.942641z" fill="#383838"/>
<path d="M593.861158 743.751015l-31.890878 18.410053 31.890878 18.412246 31.890878-18.412246-31.890878-18.410053z" fill="#c0c0c0"/>
<path d="M666.41159 657.443476l-36.274119 20.944834 36.274119 20.942641 36.276313-20.942641-36.276313-20.944834z" fill="#383838"/>
<path d="M666.41159 659.976064l-31.888685 18.412246 31.888685 18.410053 31.890878-18.410053-31.890878-18.412246z" fill="#c0c0c0"/>
<path d="M630.137471 678.38831l-36.276313 20.942641 36.276313 20.942642 36.274119-20.942642-36.274119-20.942641z" fill="#383838"/>
<path d="M630.137471 680.918706l-31.890878 18.412245 31.890878 18.412246 31.888685-18.412246-31.888685-18.412245z" fill="#c0c0c0"/>
<path d="M630.137471 720.273593l-36.276313 20.944834 36.276313 20.942641 36.274119-20.942641-36.274119-20.944834z" fill="#383838"/>
<path d="M630.137471 722.806181l-31.890878 18.412246 31.890878 18.412246 31.888685-18.412246-31.888685-18.412246z" fill="#c0c0c0"/>
<path d="M630.137471 762.161068l-36.276313 20.944834 36.276313 20.942642 36.274119-20.942642-36.274119-20.944834z" fill="#383838"/>
<path d="M630.137471 764.693657l-31.890878 18.412245 31.890878 18.412246 31.888685-18.412246-31.888685-18.412245z" fill="#c0c0c0"/>
<path d="M702.687903 678.38831l-36.276313 20.942641 36.276313 20.942642 36.274119-20.942642-36.274119-20.942641z" fill="#383838"/>
<path d="M702.687903 680.918706l-31.890878 18.412245 31.890878 18.412246 31.888685-18.412246-31.888685-18.412245z" fill="#c0c0c0"/>
<path d="M666.41159 699.330951l-36.274119 20.942642 36.274119 20.944834 36.276313-20.944834-36.276313-20.942642z" fill="#383838"/>
<path d="M666.41159 701.86354l-31.888685 18.410053 31.888685 18.412246 31.890878-18.412246-31.890878-18.410053z" fill="#c0c0c0"/>
<path d="M666.41159 741.218427l-36.274119 20.942641 36.274119 20.944834 36.276313-20.944834-36.276313-20.942641z" fill="#383838"/>
<path d="M666.41159 743.751015l-31.888685 18.410053 31.888685 18.412246 31.890878-18.412246-31.890878-18.410053z" fill="#c0c0c0"/>
<path d="M738.962022 699.330951l-36.274119 20.942642 36.274119 20.944834 36.276313-20.944834-36.276313-20.942642z" fill="#383838"/>
<path d="M738.962022 701.86354l-31.888685 18.410053 31.888685 18.412246 31.890878-18.412246-31.890878-18.410053z" fill="#c0c0c0"/>
<path d="M702.687903 720.273593l-36.276313 20.944834 36.276313 20.942641 36.274119-20.942641-36.274119-20.944834z" fill="#383838"/>
<path d="M702.687903 722.806181l-31.890878 18.412246 31.890878 18.412246 31.888685-18.412246-31.888685-18.412246z" fill="#c0c0c0"/>
<path d="M702.687903 762.161068l-36.276313 20.944834 36.276313 20.942642 36.274119-20.942642-36.274119-20.944834z" fill="#383838"/>
<path d="M702.687903 764.693657l-31.890878 18.412245 31.890878 18.412246 31.888685-18.412246-31.888685-18.412245z" fill="#c0c0c0"/>
<path d="M775.238335 720.273593l-36.276313 20.944834 36.276313 20.942641 36.274119-20.942641-36.274119-20.944834z" fill="#383838"/>
<path d="M775.238335 722.806181l-31.890878 18.412246 31.890878 18.412246 31.888685-18.412246-31.888685-18.412246z" fill="#c0c0c0"/>
<path d="M738.962022 741.218427l-36.274119 20.942641 36.274119 20.944834 36.276313-20.944834-36.276313-20.942641z" fill="#383838"/>
<path d="M738.962022 743.751015l-31.888685 18.410053 31.888685 18.412246 31.890878-18.412246-31.890878-18.410053z" fill="#c0c0c0"/>
<path d="M811.512454 741.218427l-36.274119 20.942641 36.274119 20.944834 36.276313-20.944834-36.276313-20.942641z" fill="#383838"/>
<path d="M811.512454 743.751015l-31.888685 18.410053 31.888685 18.412246 31.890878-18.412246-31.890878-18.410053z" fill="#c0c0c0"/>
<path d="M847.788767 762.161068l-36.276313 20.944834 36.276313 20.942642 36.274119-20.942642-36.274119-20.944834z" fill="#383838"/>
<path d="M847.788767 764.693657l-31.890878 18.412245 31.890878 18.412246 31.888685-18.412246-31.888685-18.412245z" fill="#c0c0c0"/>
<path d="M775.238335 762.161068l-36.276313 20.944834 36.276313 20.942642 36.274119-20.942642-36.274119-20.944834z" fill="#383838"/>
<path d="M775.238335 764.693657l-31.890878 18.412245 31.890878 18.412246 31.888685-18.412246-31.888685-18.412245z" fill="#c0c0c0"/>
<path d="M336.142342 718.085261c-8.007803-4.622248-20.140107-5.126573-27.075671-1.122671l-113.087194 65.292538 217.651296 125.660234 113.089387-65.290346c6.935564-4.003901 6.062863-11.00744-1.94494-15.63188l-188.632878-108.907875z" fill="#c0c0c0"/>
</g>
</svg>